# xmcd CD database file
#
# Track frame offsets:
#	150
#	22379
#	44206
#	62733
#	80738
#	110815
#	127017
#	150494
#	177223
#
# Disc length: 2772 seconds
#
# Revision: 0
# Processed by: cddbd v1.4PL0 Copyright (c) Steve Scherf et al.
# Submitted via: CDex 1.40Release
#
DISCID=850ad209
DTITLE=Shake Your Butt - Uptown Local
DYEAR=1999
DGENRE=Blues
TTITLE0=Mojo Boogie
TTITLE1=Bad Sign
TTITLE2=Messin`with the Kid
TTITLE3=Rack` Em Up
TTITLE4=Alright Now
TTITLE5=If You Only Could Forgive Me
TTITLE6=Victor the Cajun
TTITLE7=Wild Women
TTITLE8=Hoochie Coochie Man
EXTD=YEAR: 1999 ID3G: 0
EXTT0=
EXTT1=
EXTT2=
EXTT3=
EXTT4=
EXTT5=
EXTT6=
EXTT7=
EXTT8=
PLAYORDER=
